Normalized EMG Linear Envelopes
nRows=54
nColumns=17

endheader
time	        VM	        VL	        RF	       GRA	        TA	   ADDLONG	   SEMIMEM	      BFLH	        GM	        GL	       TFL	   GLUTMAX	   GLUTMED	      PIRI	    OBTINT	        QF	
2.06	  0.139114	  0.132033	  0.084747	  0.274402	  0.067244	  0.118223	  0.293556	  0.082056	  0.468371	  0.341159	  0.193781	  0.110772	  0.107705	  0.226952	  0.666967	  0.112076	
2.0605	  0.137430	  0.131040	  0.086109	  0.277219	  0.067820	  0.119143	  0.291303	  0.081387	  0.467877	  0.340006	  0.195307	  0.108533	  0.108898	  0.226892	  0.673846	  0.110850	
2.061	  0.135748	  0.130062	  0.087486	  0.280056	  0.068414	  0.120058	  0.289031	  0.080729	  0.467327	  0.338819	  0.196821	  0.106316	  0.110104	  0.226878	  0.680800	  0.109658	
2.0615	  0.134066	  0.129099	  0.088878	  0.282911	  0.069026	  0.120968	  0.286741	  0.080082	  0.466719	  0.337598	  0.198322	  0.104120	  0.111323	  0.226907	  0.687823	  0.108498	
2.062	  0.132386	  0.128152	  0.090286	  0.285783	  0.069657	  0.121872	  0.284437	  0.079445	  0.466052	  0.336341	  0.199811	  0.101948	  0.112554	  0.226981	  0.694913	  0.107371	
2.0625	  0.130709	  0.127222	  0.091708	  0.288670	  0.070306	  0.122771	  0.282118	  0.078819	  0.465326	  0.335049	  0.201285	  0.099798	  0.113797	  0.227098	  0.702065	  0.106274	
2.063	  0.129036	  0.126309	  0.093145	  0.291570	  0.070975	  0.123663	  0.279786	  0.078203	  0.464539	  0.333722	  0.202746	  0.097672	  0.115051	  0.227258	  0.709276	  0.105209	
2.0635	  0.127366	  0.125413	  0.094596	  0.294481	  0.071662	  0.124548	  0.277444	  0.077599	  0.463692	  0.332360	  0.204192	  0.095569	  0.116316	  0.227461	  0.716541	  0.104173	
2.064	  0.125702	  0.124535	  0.096061	  0.297403	  0.072369	  0.125426	  0.275093	  0.077004	  0.462782	  0.330962	  0.205623	  0.093491	  0.117591	  0.227706	  0.723857	  0.103167	
2.0645	  0.124043	  0.123674	  0.097540	  0.300332	  0.073096	  0.126296	  0.272734	  0.076421	  0.461810	  0.329528	  0.207038	  0.091438	  0.118875	  0.227992	  0.731219	  0.102189	
2.065	  0.122390	  0.122832	  0.099032	  0.303267	  0.073843	  0.127157	  0.270369	  0.075848	  0.460775	  0.328059	  0.208437	  0.089410	  0.120169	  0.228318	  0.738623	  0.101239	
2.0655	  0.120745	  0.122009	  0.100538	  0.306207	  0.074610	  0.128010	  0.267998	  0.075286	  0.459676	  0.326555	  0.209819	  0.087407	  0.121470	  0.228684	  0.746065	  0.100317	
2.066	  0.119106	  0.121204	  0.102056	  0.309151	  0.075398	  0.128852	  0.265623	  0.074734	  0.458512	  0.325014	  0.211184	  0.085429	  0.122780	  0.229090	  0.753540	  0.099421	
2.0665	  0.117476	  0.120419	  0.103586	  0.312095	  0.076207	  0.129685	  0.263246	  0.074193	  0.457285	  0.323438	  0.212531	  0.083477	  0.124096	  0.229533	  0.761043	  0.098551	
2.067	  0.115855	  0.119652	  0.105128	  0.315039	  0.077037	  0.130508	  0.260867	  0.073663	  0.455994	  0.321828	  0.213860	  0.081552	  0.125419	  0.230014	  0.768571	  0.097707	
2.0675	  0.114243	  0.118905	  0.106681	  0.317981	  0.077889	  0.131320	  0.258488	  0.073144	  0.454639	  0.320183	  0.215170	  0.079653	  0.126747	  0.230531	  0.776118	  0.096888	
2.068	  0.112641	  0.118178	  0.108245	  0.320919	  0.078762	  0.132121	  0.256109	  0.072635	  0.453223	  0.318504	  0.216461	  0.077780	  0.128079	  0.231084	  0.783680	  0.096094	
2.0685	  0.111050	  0.117471	  0.109819	  0.323851	  0.079657	  0.132910	  0.253731	  0.072136	  0.451745	  0.316794	  0.217731	  0.075934	  0.129416	  0.231672	  0.791251	  0.095323	
2.069	  0.109470	  0.116783	  0.111403	  0.326777	  0.080575	  0.133689	  0.251356	  0.071648	  0.450208	  0.315052	  0.218981	  0.074115	  0.130756	  0.232293	  0.798826	  0.094576	
2.0695	  0.107902	  0.116115	  0.112996	  0.329694	  0.081515	  0.134455	  0.248985	  0.071171	  0.448612	  0.313281	  0.220209	  0.072323	  0.132098	  0.232946	  0.806400	  0.093853	
2.07	  0.106346	  0.115467	  0.114598	  0.332602	  0.082478	  0.135211	  0.246618	  0.070704	  0.446958	  0.311481	  0.221416	  0.070558	  0.133441	  0.233631	  0.813967	  0.093152	
2.0705	  0.104802	  0.114839	  0.116208	  0.335500	  0.083464	  0.135955	  0.244257	  0.070247	  0.445248	  0.309653	  0.222599	  0.068820	  0.134785	  0.234346	  0.821522	  0.092473	
2.071	  0.103272	  0.114232	  0.117825	  0.338386	  0.084473	  0.136688	  0.241903	  0.069800	  0.443482	  0.307799	  0.223760	  0.067110	  0.136128	  0.235091	  0.829058	  0.091815	
2.0715	  0.101755	  0.113644	  0.119450	  0.341260	  0.085506	  0.137410	  0.239556	  0.069364	  0.441662	  0.305920	  0.224899	  0.065427	  0.137470	  0.235863	  0.836570	  0.091179	
2.072	  0.100252	  0.113076	  0.121080	  0.344121	  0.086563	  0.138120	  0.237218	  0.068937	  0.439788	  0.304017	  0.226014	  0.063771	  0.138809	  0.236662	  0.844052	  0.090563	
2.0725	  0.098764	  0.112528	  0.122716	  0.346969	  0.087644	  0.138820	  0.234890	  0.068521	  0.437861	  0.302090	  0.227107	  0.062143	  0.140145	  0.237487	  0.851496	  0.089967	
2.073	  0.097290	  0.112000	  0.124356	  0.349801	  0.088750	  0.139507	  0.232572	  0.068114	  0.435883	  0.300141	  0.228177	  0.060542	  0.141476	  0.238336	  0.858896	  0.089390	
2.0735	  0.095831	  0.111491	  0.126000	  0.352618	  0.089880	  0.140184	  0.230265	  0.067717	  0.433853	  0.298170	  0.229225	  0.058968	  0.142801	  0.239208	  0.866245	  0.088832	
2.074	  0.094387	  0.111002	  0.127648	  0.355419	  0.091034	  0.140850	  0.227971	  0.067330	  0.431774	  0.296179	  0.230251	  0.057422	  0.144120	  0.240102	  0.873536	  0.088294	
2.0745	  0.092959	  0.110532	  0.129297	  0.358203	  0.092213	  0.141506	  0.225689	  0.066953	  0.429646	  0.294169	  0.231254	  0.055903	  0.145431	  0.241015	  0.880761	  0.087773	
2.075	  0.091547	  0.110081	  0.130948	  0.360971	  0.093417	  0.142151	  0.223422	  0.066585	  0.427471	  0.292141	  0.232235	  0.054412	  0.146732	  0.241948	  0.887913	  0.087270	
2.0755	  0.090151	  0.109649	  0.132600	  0.363721	  0.094647	  0.142785	  0.221169	  0.066227	  0.425249	  0.290097	  0.233193	  0.052948	  0.148023	  0.242897	  0.894983	  0.086785	
2.076	  0.088771	  0.109235	  0.134252	  0.366455	  0.095901	  0.143410	  0.218932	  0.065878	  0.422982	  0.288036	  0.234129	  0.051512	  0.149302	  0.243862	  0.901965	  0.086318	
2.0765	  0.087408	  0.108840	  0.135902	  0.369171	  0.097181	  0.144026	  0.216711	  0.065538	  0.420669	  0.285962	  0.235043	  0.050103	  0.150568	  0.244841	  0.908850	  0.085867	
2.077	  0.086062	  0.108462	  0.137551	  0.371871	  0.098487	  0.144633	  0.214507	  0.065208	  0.418313	  0.283874	  0.235934	  0.048720	  0.151820	  0.245832	  0.915629	  0.085432	
2.0775	  0.084732	  0.108103	  0.139197	  0.374554	  0.099818	  0.145230	  0.212322	  0.064888	  0.415913	  0.281774	  0.236803	  0.047365	  0.153055	  0.246834	  0.922294	  0.085014	
2.078	  0.083420	  0.107760	  0.140838	  0.377220	  0.101174	  0.145820	  0.210155	  0.064578	  0.413470	  0.279662	  0.237651	  0.046037	  0.154274	  0.247844	  0.928838	  0.084612	
2.0785	  0.082125	  0.107435	  0.142475	  0.379869	  0.102557	  0.146401	  0.208009	  0.064277	  0.410986	  0.277541	  0.238477	  0.044736	  0.155473	  0.248861	  0.935250	  0.084225	
2.079	  0.080847	  0.107126	  0.144107	  0.382501	  0.103965	  0.146974	  0.205883	  0.063986	  0.408462	  0.275409	  0.239281	  0.043461	  0.156653	  0.249884	  0.941523	  0.083854	
2.0795	  0.079587	  0.106833	  0.145731	  0.385117	  0.105399	  0.147540	  0.203780	  0.063706	  0.405898	  0.273270	  0.240065	  0.042213	  0.157811	  0.250910	  0.947647	  0.083497	
2.08	  0.078344	  0.106556	  0.147347	  0.387717	  0.106859	  0.148099	  0.201699	  0.063435	  0.403296	  0.271122	  0.240829	  0.040992	  0.158946	  0.251937	  0.953613	  0.083155	
2.0805	  0.077118	  0.106294	  0.148954	  0.390300	  0.108345	  0.148650	  0.199642	  0.063174	  0.400658	  0.268968	  0.241572	  0.039796	  0.160057	  0.252965	  0.959412	  0.082826	
2.081	  0.075911	  0.106047	  0.150551	  0.392869	  0.109857	  0.149195	  0.197610	  0.062923	  0.397983	  0.266807	  0.242297	  0.038627	  0.161144	  0.253991	  0.965033	  0.082511	
2.0815	  0.074720	  0.105814	  0.152137	  0.395422	  0.111396	  0.149734	  0.195603	  0.062683	  0.395274	  0.264640	  0.243003	  0.037483	  0.162203	  0.255014	  0.970467	  0.082209	
2.082	  0.073547	  0.105595	  0.153710	  0.397959	  0.112961	  0.150266	  0.193623	  0.062453	  0.392532	  0.262468	  0.243691	  0.036366	  0.163235	  0.256033	  0.975704	  0.081921	
2.0825	  0.072392	  0.105389	  0.155270	  0.400482	  0.114552	  0.150792	  0.191670	  0.062233	  0.389756	  0.260292	  0.244363	  0.035273	  0.164238	  0.257047	  0.980734	  0.081644	
2.083	  0.071254	  0.105196	  0.156816	  0.402989	  0.116171	  0.151313	  0.189746	  0.062023	  0.386948	  0.258112	  0.245017	  0.034207	  0.165211	  0.258052	  0.985546	  0.081380	
2.0835	  0.070134	  0.105015	  0.158348	  0.405481	  0.117816	  0.151828	  0.187850	  0.061824	  0.384109	  0.255929	  0.245656	  0.033165	  0.166153	  0.259050	  0.990131	  0.081128	
2.084	  0.069030	  0.104846	  0.159863	  0.407957	  0.119488	  0.152338	  0.185984	  0.061635	  0.381240	  0.253743	  0.246279	  0.032148	  0.167063	  0.260037	  0.994480	  0.080887	
2.0845	  0.067944	  0.104687	  0.161363	  0.410418	  0.121186	  0.152843	  0.184149	  0.061456	  0.378341	  0.251555	  0.246888	  0.031155	  0.167939	  0.261012	  0.998582	  0.080658	
2.085	  0.066876	  0.104539	  0.162846	  0.412862	  0.122912	  0.153343	  0.182345	  0.061288	  0.375415	  0.249366	  0.247482	  0.030187	  0.168780	  0.261974	  1.002430	  0.080439	
2.0855	  0.065824	  0.104401	  0.164311	  0.415290	  0.124666	  0.153838	  0.180573	  0.061129	  0.372462	  0.247176	  0.248062	  0.029244	  0.169585	  0.262920	  1.006015	  0.080230	
2.086	  0.064789	  0.104272	  0.165758	  0.417700	  0.126446	  0.154329	  0.178833	  0.060981	  0.369484	  0.244986	  0.248629	  0.028324	  0.170353	  0.263850	  1.009330	  0.080032	
2.0865	  0.063771	  0.104152	  0.167186	  0.420093	  0.128254	  0.154815	  0.177126	  0.060843	  0.366481	  0.242796	  0.249182	  0.027427	  0.171083	  0.264761	  1.012368	  0.079843	
